<?xml version="1.0" standalone="no"?><!DOCTYPE svg PUBLIC "-//W3C//DTD SVG 1.1//EN" "http://www.w3.org/Graphics/SVG/1.1/DTD/svg11.dtd"><svg t="1614700523479" class="icon" viewBox="0 0 1024 1024" version="1.1" xmlns="http://www.w3.org/2000/svg" p-id="860" xmlns:xlink="http://www.w3.org/1999/xlink" width="200" height="200"><defs><style type="text/css"></style></defs><path d="M874.418207 874.528084c-22.523165 22.523165-47.093891 42.99877-73.712178 60.914925-26.618286 17.916154-54.260353 33.784748-83.94998 46.070111-58.867364 25.594506-122.341739 39.92743-187.351785 41.97499-64.498155 2.04756-130.020091-7.678352-191.958796-30.201517-61.938705-22.011275-119.782289-56.819804-169.435631-101.866135-49.653342-45.046331-91.116442-100.330464-119.782288-162.269169-29.177737-61.938705-45.558221-130.020091-47.605782-199.637148C-1.937683 460.408975 10.34768 390.280028 35.942186 325.269982c12.797253-32.249078 29.177737-63.986265 48.117671-93.164002 19.451825-29.177737 41.4631-56.307914 66.033826-81.390529 25.082616-24.570726 52.212793-47.093891 81.39053-66.545716C261.17384 65.2298 292.399137 49.361206 325.160105 36.052063c65.010046-25.594506 135.138992-37.879869 204.244159-35.832309 69.105167 2.04756 137.698443 18.428044 199.637148 47.605782 61.938705 29.177737 117.222838 70.640837 162.269169 120.294179S971.16544 276.128531 993.176715 338.067235c22.523165 61.938705 32.249078 127.460641 30.201518 191.958797-2.04756 64.498155-16.380484 128.484421-41.97499 187.351784-12.797253 29.177737-28.153957 57.331694-46.070111 83.949981-17.916154 26.106396-38.391759 50.677122-60.914925 73.200287z m0 0c22.523165-22.523165 42.48688-47.605781 60.403034-74.224068 17.404264-26.618286 32.249078-55.284133 44.022551-84.46187 23.546946-59.379254 34.296638-122.853629 31.737188-185.816114-2.04756-62.962485-17.404264-124.90119-44.022551-180.697214-26.618286-55.796023-64.498155-105.961255-109.544486-146.400575-45.046331-40.43932-97.771013-71.664617-154.078927-91.116442-55.796023-19.963715-115.175278-28.665847-173.530752-26.618286-29.177737 1.02378-57.843584 5.118901-86.509431 11.261583-28.153957 6.142681-55.284133 15.356704-81.902419 26.618286-52.724683 23.035056-100.842354 55.796023-141.793564 96.747233-20.475605 20.475605-38.903649 42.48688-54.772243 66.033826-16.380484 23.546946-30.201517 48.629562-41.97499 75.247848-23.035056 52.724683-36.344199 110.056376-38.39176 168.41185-2.04756 58.355474 6.654572 117.734728 26.618287 173.530752 19.963715 55.796023 50.677122 108.520706 91.628332 154.078927 40.43932 45.046331 90.604552 82.9262 146.400575 109.544486 55.796023 26.618286 118.246618 41.4631 181.209103 44.022551 62.962485 2.04756 126.94875-8.702132 185.816115-32.249078 29.689627-11.773473 57.843584-26.106396 84.46187-44.02255 26.618286-17.404264 51.189012-37.367979 74.224068-59.891145z" fill="#333333" p-id="861"></path></svg>